<svg version="1.1" id="Layer_1" xmlns="http://www.w3.org/2000/svg" xmlns:xlink="http://www.w3.org/1999/xlink" x="0px" y="0px"
	 width="100%" viewBox="0 0 706 353" enable-background="new 0 0 706 353" xml:space="preserve">
<!-- <path fill="#000000" opacity="1.000000" stroke="none" 
	d="
M707.000000,197.000000 
	C707.000000,249.322647 707.000000,301.645294 707.000000,353.983948 
	C471.725403,353.983948 236.450821,353.983948 1.088115,353.983948 
	C1.088115,236.416168 1.088115,118.832237 1.088115,1.124157 
	C236.333298,1.124157 471.666626,1.124157 707.000000,1.124157 
	C707.000000,64.428268 707.000000,127.749123 706.618652,191.530060 
	C702.919250,190.658691 699.636169,189.231049 696.276978,188.013214 
	C684.373962,183.697800 672.062683,182.002640 659.451172,180.701538 
	C640.735352,178.770676 622.277466,180.452286 604.081055,183.397400 
	C582.195740,186.939545 561.848083,195.994247 541.929016,205.628174 
	C528.956665,211.902313 516.276978,218.797058 503.196472,224.828735 
	C483.096283,234.097305 463.049408,243.590363 442.459747,251.661331 
	C415.588562,262.194641 387.628876,267.815216 358.480408,266.064301 
	C345.406647,265.278961 332.845978,262.374542 320.533691,258.191315 
	C315.106445,256.347382 309.818451,254.093445 304.014069,251.850510 
	C307.475952,264.665344 357.309326,284.293396 386.400574,284.936401 
	C395.938568,284.967957 405.007507,284.912659 414.508301,284.897827 
	C423.599243,283.922424 432.258331,282.906525 440.917450,281.890625 
	C440.989471,282.338440 441.061493,282.786255 441.133514,283.234039 
	C412.366180,293.883545 382.507751,299.336792 351.434509,301.119171 
	C341.697113,301.117584 332.417145,301.179962 322.717224,301.150238 
	C319.415619,300.990601 316.454071,301.332214 313.665558,300.787720 
	C297.955841,297.720184 282.199097,294.815765 266.625854,291.145050 
	C242.196838,285.386993 220.123474,273.927704 199.259933,260.461945 
	C179.062408,247.426056 160.978439,231.589645 144.466980,214.043350 
	C143.192032,212.688477 141.743195,211.497223 140.375183,210.229919 
	C139.953064,210.484604 139.530960,210.739273 139.108856,210.993942 
	C139.869308,212.906082 140.358047,214.988037 141.431000,216.704880 
	C157.283783,242.071243 175.331711,265.553772 197.879395,285.537567 
	C217.768158,303.164856 239.597900,317.465546 264.152771,327.485413 
	C281.703033,334.647003 299.948608,339.204315 319.201782,340.447388 
	C329.936646,340.884033 340.462097,340.957306 350.987518,340.956055 
	C351.653748,340.955994 352.319916,340.375641 353.444824,340.019226 
	C357.839447,339.643738 361.774597,339.304962 365.711365,338.986481 
	C381.342438,337.721954 396.523956,333.884949 410.950226,328.231720 
	C428.432434,321.380951 445.893005,313.935638 462.152710,304.632446 
	C485.834961,291.082336 508.555054,275.826447 531.469604,260.965149 
	C559.318298,242.903793 586.261597,223.440720 616.704041,209.603394 
	C639.502747,199.240448 662.902466,192.424728 688.160706,194.048462 
	C694.477661,194.454529 700.722168,195.985855 707.000000,197.000000 
M361.972321,43.964928 
	C361.972321,43.964928 361.954773,44.071289 362.899323,43.965004 
	C367.364502,43.986897 371.832367,43.920654 376.294189,44.054371 
	C381.191223,44.201122 386.082764,44.532169 391.896912,44.936928 
	C406.382324,46.841576 421.013580,48.005478 435.319397,50.822235 
	C457.493225,55.188160 478.276215,63.753147 498.127411,74.536690 
	C516.123779,84.312660 532.821289,95.976265 548.013855,109.686356 
	C557.040344,117.832016 565.592651,126.503166 574.358154,134.938034 
	C574.743835,134.779465 575.129517,134.620895 575.515137,134.462326 
	C575.260742,133.123611 575.358826,131.572647 574.699646,130.477615 
	C562.442993,110.117027 548.591309,90.870102 532.084717,73.777771 
	C522.953918,64.322914 513.025574,55.488197 502.632996,47.437286 
	C487.281189,35.544529 470.569305,25.791204 452.345825,18.657145 
	C437.731750,12.936058 422.847565,7.872002 407.328644,6.276404 
	C392.225250,4.723529 376.898346,5.254291 361.667145,5.060003 
	C345.569794,4.854666 330.163574,8.975476 314.964722,13.560172 
	C287.953766,21.707951 262.596252,33.833267 238.544067,48.381897 
	C217.783524,60.939499 197.872818,74.895149 177.458649,88.034271 
	C157.054337,101.167061 136.920654,114.805519 115.868469,126.820869 
	C97.533859,137.285187 78.355095,146.204895 56.884743,149.263351 
	C42.728943,151.279831 28.805000,153.462784 14.614108,150.064499 
	C11.327870,149.277542 7.886034,149.140366 4.515798,148.704178 
	C4.376594,149.169189 4.237390,149.634216 4.098185,150.099228 
	C7.011506,151.847733 9.783094,153.912613 12.861847,155.291824 
	C29.152296,162.589615 46.468708,165.482391 64.127953,165.800934 
	C74.161194,165.981903 84.217209,164.560196 94.271095,164.008270 
	C115.511803,162.842224 135.498352,156.623398 154.627716,147.948593 
	C180.136826,136.380661 205.126144,123.670929 230.561279,111.933914 
	C246.009399,104.805397 261.666687,98.018387 277.611694,92.107635 
	C296.279724,85.187469 315.542297,80.195999 335.682587,79.994255 
	C345.555939,79.895355 355.563782,79.095215 365.275543,80.384499 
	C379.050293,82.213135 392.621796,85.592316 405.364838,91.589279 
	C407.546112,92.615822 410.071075,92.912064 412.437286,93.545685 
	C412.682587,93.042526 412.927887,92.539368 413.173187,92.036209 
	C412.350159,91.475243 411.556396,90.864563 410.699707,90.360916 
	C401.033264,84.678139 391.692749,78.307365 381.606812,73.502327 
	C365.560547,65.857735 348.303223,62.098324 330.555878,61.102051 
	C322.836761,60.668728 315.070709,60.902103 307.330811,61.063965 
	C301.353485,61.188972 295.378601,61.602165 289.412109,62.021893 
	C284.358154,62.377426 279.317780,62.925900 274.271393,63.388992 
	C302.201721,52.239491 331.040771,45.626019 361.569397,44.766804 
	C361.838562,44.569550 362.008362,44.307816 361.972321,43.964928 
M276.994293,153.589386 
	C274.539459,163.972687 274.412109,174.385635 275.913788,184.954239 
	C278.112823,200.430649 284.296997,214.210983 294.480774,225.748138 
	C314.727600,248.685699 340.273529,258.769867 370.818817,253.888336 
	C390.773590,250.699310 407.655273,241.535889 420.791656,225.783768 
	C437.269501,206.024811 443.786774,183.581116 438.931000,158.279907 
	C433.570435,130.348267 417.852661,110.122383 392.011078,98.059090 
	C375.726868,90.457359 358.455841,88.940170 341.043793,92.162895 
	C323.955200,95.325752 309.145905,103.253487 297.153839,116.278763 
	C287.417603,126.853874 280.925507,139.034546 276.994293,153.589386 
z"/> -->
<path fill="#1B75BA" opacity="1.000000" stroke="none" 
	d="
M707.000000,196.583344 
	C700.722168,195.985855 694.477661,194.454529 688.160706,194.048462 
	C662.902466,192.424728 639.502747,199.240448 616.704041,209.603394 
	C586.261597,223.440720 559.318298,242.903793 531.469604,260.965149 
	C508.555054,275.826447 485.834961,291.082336 462.152710,304.632446 
	C445.893005,313.935638 428.432434,321.380951 410.950226,328.231720 
	C396.523956,333.884949 381.342438,337.721954 365.711365,338.986481 
	C361.774597,339.304962 357.839447,339.643738 352.977661,339.999207 
	C341.031921,340.039124 330.012146,340.053009 318.992340,340.066925 
	C299.948608,339.204315 281.703033,334.647003 264.152771,327.485413 
	C239.597900,317.465546 217.768158,303.164856 197.879395,285.537567 
	C175.331711,265.553772 157.283783,242.071243 141.431000,216.704880 
	C140.358047,214.988037 139.869308,212.906082 139.108856,210.993942 
	C139.530960,210.739273 139.953064,210.484604 140.375183,210.229919 
	C141.743195,211.497223 143.192032,212.688477 144.466980,214.043350 
	C160.978439,231.589645 179.062408,247.426056 199.259933,260.461945 
	C220.123474,273.927704 242.196838,285.386993 266.625854,291.145050 
	C282.199097,294.815765 297.955841,297.720184 313.665558,300.787720 
	C316.454071,301.332214 319.415619,300.990601 323.105347,301.236023 
	C333.239655,301.336975 342.565796,301.260071 351.891968,301.183136 
	C382.507751,299.336792 412.366180,293.883545 441.133514,283.234039 
	C441.061493,282.786255 440.989471,282.338440 440.917450,281.890625 
	C432.258331,282.906525 423.599243,283.922424 414.147766,284.680023 
	C404.214111,284.564331 395.072845,284.706940 385.931549,284.849548 
	C357.309326,284.293396 307.475952,264.665344 304.014069,251.850510 
	C309.818451,254.093445 315.106445,256.347382 320.533691,258.191315 
	C332.845978,262.374542 345.406647,265.278961 358.480408,266.064301 
	C387.628876,267.815216 415.588562,262.194641 442.459747,251.661331 
	C463.049408,243.590363 483.096283,234.097305 503.196472,224.828735 
	C516.276978,218.797058 528.956665,211.902313 541.929016,205.628174 
	C561.848083,195.994247 582.195740,186.939545 604.081055,183.397400 
	C622.277466,180.452286 640.735352,178.770676 659.451172,180.701538 
	C672.062683,182.002640 684.373962,183.697800 696.276978,188.013214 
	C699.636169,189.231049 702.919250,190.658691 706.618652,191.995056 
	C707.000000,193.388885 707.000000,194.777786 707.000000,196.583344 
z"/>
<path fill="#1B75BA" opacity="1.000000" stroke="none" 
	d="
M361.095184,44.783722 
	C331.040771,45.626019 302.201721,52.239491 274.271393,63.388992 
	C279.317780,62.925900 284.358154,62.377426 289.412109,62.021893 
	C295.378601,61.602165 301.353485,61.188972 307.330811,61.063965 
	C315.070709,60.902103 322.836761,60.668728 330.555878,61.102051 
	C348.303223,62.098324 365.560547,65.857735 381.606812,73.502327 
	C391.692749,78.307365 401.033264,84.678139 410.699707,90.360916 
	C411.556396,90.864563 412.350159,91.475243 413.173187,92.036209 
	C412.927887,92.539368 412.682587,93.042526 412.437286,93.545685 
	C410.071075,92.912064 407.546112,92.615822 405.364838,91.589279 
	C392.621796,85.592316 379.050293,82.213135 365.275543,80.384499 
	C355.563782,79.095215 345.555939,79.895355 335.682587,79.994255 
	C315.542297,80.195999 296.279724,85.187469 277.611694,92.107635 
	C261.666687,98.018387 246.009399,104.805397 230.561279,111.933914 
	C205.126144,123.670929 180.136826,136.380661 154.627716,147.948593 
	C135.498352,156.623398 115.511803,162.842224 94.271095,164.008270 
	C84.217209,164.560196 74.161194,165.981903 64.127953,165.800934 
	C46.468708,165.482391 29.152296,162.589615 12.861847,155.291824 
	C9.783094,153.912613 7.011506,151.847733 4.098185,150.099228 
	C4.237390,149.634216 4.376594,149.169189 4.515798,148.704178 
	C7.886034,149.140366 11.327870,149.277542 14.614108,150.064499 
	C28.805000,153.462784 42.728943,151.279831 56.884743,149.263351 
	C78.355095,146.204895 97.533859,137.285187 115.868469,126.820869 
	C136.920654,114.805519 157.054337,101.167061 177.458649,88.034271 
	C197.872818,74.895149 217.783524,60.939499 238.544067,48.381897 
	C262.596252,33.833267 287.953766,21.707951 314.964722,13.560172 
	C330.163574,8.975476 345.569794,4.854666 361.667145,5.060003 
	C376.898346,5.254291 392.225250,4.723529 407.328644,6.276404 
	C422.847565,7.872002 437.731750,12.936058 452.345825,18.657145 
	C470.569305,25.791204 487.281189,35.544529 502.632996,47.437286 
	C513.025574,55.488197 522.953918,64.322914 532.084717,73.777771 
	C548.591309,90.870102 562.442993,110.117027 574.699646,130.477615 
	C575.358826,131.572647 575.260742,133.123611 575.515137,134.462326 
	C575.129517,134.620895 574.743835,134.779465 574.358154,134.938034 
	C565.592651,126.503166 557.040344,117.832016 548.013855,109.686356 
	C532.821289,95.976265 516.123779,84.312660 498.127411,74.536690 
	C478.276215,63.753147 457.493225,55.188160 435.319397,50.822235 
	C421.013580,48.005478 406.382324,46.841576 391.216522,44.563133 
	C381.009003,44.149990 371.481903,44.110641 361.954773,44.071289 
	C361.954773,44.071289 361.972321,43.964928 361.877991,44.127544 
	C361.546387,44.443867 361.316895,44.608387 361.095184,44.783722 
z"/>
<path fill="#2BAADF" opacity="1.000000" stroke="none" 
	d="
M277.010559,153.164185 
	C280.925507,139.034546 287.417603,126.853874 297.153839,116.278763 
	C309.145905,103.253487 323.955200,95.325752 341.043793,92.162895 
	C358.455841,88.940170 375.726868,90.457359 392.011078,98.059090 
	C417.852661,110.122383 433.570435,130.348267 438.931000,158.279907 
	C443.786774,183.581116 437.269501,206.024811 420.791656,225.783768 
	C407.655273,241.535889 390.773590,250.699310 370.818817,253.888336 
	C340.273529,258.769867 314.727600,248.685699 294.480774,225.748138 
	C284.296997,214.210983 278.112823,200.430649 275.913788,184.954239 
	C274.412109,174.385635 274.539459,163.972687 277.010559,153.164185 
M386.942261,122.422859 
	C368.664398,112.932892 349.835815,111.331589 331.472809,121.101036 
	C304.928467,135.223099 296.027008,160.978683 302.880280,189.538086 
	C307.840454,210.208649 334.082672,231.376556 356.921021,229.280823 
	C367.015747,228.354477 376.652863,227.436432 385.564911,222.187042 
	C402.867462,211.995499 413.103180,196.810959 414.766876,177.102814 
	C416.719208,153.975235 407.146606,135.673569 386.942261,122.422859 
z"/>
<path fill="#91BACE" opacity="1.000000" stroke="none" 
	d="
M319.201782,340.447388 
	C330.012146,340.053009 341.031921,340.039124 352.518921,340.045227 
	C352.319916,340.375641 351.653748,340.955994 350.987518,340.956055 
	C340.462097,340.957306 329.936646,340.884033 319.201782,340.447388 
z"/>
<path fill="#5B96C2" opacity="1.000000" stroke="none" 
	d="
M362.427063,44.018150 
	C371.481903,44.110641 381.009003,44.149990 390.756409,44.486130 
	C386.082764,44.532169 381.191223,44.201122 376.294189,44.054371 
	C371.832367,43.920654 367.364502,43.986897 362.427063,44.018150 
z"/>
<path fill="#79ACCF" opacity="1.000000" stroke="none" 
	d="
M351.434509,301.119171 
	C342.565796,301.260071 333.239655,301.336975 323.525330,301.328125 
	C332.417145,301.179962 341.697113,301.117584 351.434509,301.119171 
z"/>
<path fill="#417EAD" opacity="1.000000" stroke="none" 
	d="
M386.400574,284.936401 
	C395.072845,284.706940 404.214111,284.564331 413.715942,284.639526 
	C405.007507,284.912659 395.938568,284.967957 386.400574,284.936401 
z"/>
<path fill="#5B96C2" opacity="1.000000" stroke="none" 
	d="
M361.332275,44.775261 
	C361.316895,44.608387 361.546387,44.443867 361.931244,44.135880 
	C362.008362,44.307816 361.838562,44.569550 361.332275,44.775261 
z"/>
<!-- <path fill="#000000" opacity="1.000000" stroke="none" 
	d="
M387.208069,122.686462 
	C407.146606,135.673569 416.719208,153.975235 414.766876,177.102814 
	C413.103180,196.810959 402.867462,211.995499 385.564911,222.187042 
	C376.652863,227.436432 367.015747,228.354477 356.921021,229.280823 
	C334.082672,231.376556 307.840454,210.208649 302.880280,189.538086 
	C296.027008,160.978683 304.928467,135.223099 331.472809,121.101036 
	C349.835815,111.331589 368.664398,112.932892 387.208069,122.686462 
M363.634613,123.968468 
	C358.038330,124.121719 352.359711,123.725082 346.863586,124.547623 
	C336.762756,126.059296 329.316925,132.322281 322.240631,139.310349 
	C306.641113,154.715363 304.613037,181.292130 316.429718,198.704193 
	C337.080841,229.133926 381.312622,227.651947 399.233704,198.031021 
	C408.436829,182.819534 409.991058,166.997559 401.430908,150.852478 
	C400.353638,148.820633 399.000000,146.935333 397.545166,144.616791 
	C390.232635,158.574600 379.279968,164.141327 370.069885,158.877594 
	C365.951630,156.523941 362.150970,153.875702 360.722473,148.571762 
	C358.177277,139.121735 361.278076,131.792435 369.194214,125.162315 
	C366.802887,124.580116 365.589691,124.284752 363.634613,123.968468 
z"/> -->
<path fill="#272660" opacity="1.000000" stroke="none" 
	d="
M364.005554,123.978928 
	C365.589691,124.284752 366.802887,124.580116 369.194214,125.162315 
	C361.278076,131.792435 358.177277,139.121735 360.722473,148.571762 
	C362.150970,153.875702 365.951630,156.523941 370.069885,158.877594 
	C379.279968,164.141327 390.232635,158.574600 397.545166,144.616791 
	C399.000000,146.935333 400.353638,148.820633 401.430908,150.852478 
	C409.991058,166.997559 408.436829,182.819534 399.233704,198.031021 
	C381.312622,227.651947 337.080841,229.133926 316.429718,198.704193 
	C304.613037,181.292130 306.641113,154.715363 322.240631,139.310349 
	C329.316925,132.322281 336.762756,126.059296 346.863586,124.547623 
	C352.359711,123.725082 358.038330,124.121719 364.005554,123.978928 
z"/>
</svg>